<svg width="78" height="78" viewBox="0 0 78 78" fill="none" xmlns="http://www.w3.org/2000/svg">
<path d="M34.8527 47.9601L30.0998 48.9786C30.0334 48.9928 29.9687 49.0138 29.9066 49.0411L17.7247 54.4011C17.5771 54.4661 17.4474 54.5658 17.3466 54.6917L12.4049 60.8689C11.9678 61.4153 11.1191 61.3553 10.7631 60.7529L5.13907 51.2354C5.04803 51.0813 5 50.9056 5 50.7266V38.1024C5 38.0343 5.00695 37.9664 5.02074 37.8998L7.94927 23.7452C7.98257 23.5842 8.05506 23.4339 8.16031 23.3076L17.9072 11.6114C17.9687 11.5375 18.0406 11.4729 18.1207 11.4196L29.7358 3.67616C29.9077 3.56154 30.1064 3.50285 30.313 3.50854C36.5837 3.68107 48.82 4.10665 50 4.5C51.5 5 63 11 63.5 12C64 13 71.5 25.5 72 27C72.5 28.5 72.5 51.5 72.5 52C72.5 52.3663 68.586 56.6746 66.1348 59.3176C65.7773 59.7031 65.1834 59.7427 64.7754 59.4113L57.6415 53.6149C57.5479 53.5389 57.4414 53.4805 57.3271 53.4424L44.035 49.0117C43.3298 48.7766 43.1185 47.8815 43.6441 47.3559L47 44L51.3453 39.1719C51.4471 39.0588 51.5217 38.924 51.5635 38.7776L53.4303 32.244C53.476 32.0839 53.4811 31.9149 53.445 31.7523L51.5588 23.2648C51.5203 23.0914 51.437 22.9321 51.3161 22.802C49.0924 20.4076 44.889 15.889 44.5 15.5C44.1152 15.1152 40.6141 14.6995 38.7166 14.5201C38.5733 14.5065 38.4298 14.5248 38.2941 14.5727L30.3025 17.3932C30.1058 17.4627 29.9365 17.5908 29.8167 17.7616C28.596 19.5011 26.3801 22.6199 26 23C25.5 23.5 25 30.5 25 31C25 31.5 27 39 27 39.5C27 39.838 31.7603 43.532 35.2472 46.1774C35.9306 46.696 35.6915 47.7804 34.8527 47.9601Z" fill="#9B9B9B"/>
<path d="M78 39C78 17.4609 60.5391 0 39 0C17.4609 0 0 17.4609 0 39C0 60.5391 17.4609 78 39 78C60.5391 78 78 60.5391 78 39ZM7.33581 39C7.33581 21.5124 21.5124 7.33581 39 7.33581C56.4876 7.33581 70.6642 21.5124 70.6642 39C70.6642 56.4876 56.4876 70.6642 39 70.6642C21.5124 70.6642 7.33581 56.4876 7.33581 39Z" fill="#9B9B9B"/>
<path d="M69.7864 60.9428C66.8644 56.543 62.5718 52.847 57.3399 50.226C52.1079 47.605 46.121 46.1513 39.9807 46.0112C33.8404 45.871 27.7629 47.0493 22.3589 49.4275C16.9549 51.8057 12.4147 55.3002 9.19455 59.5598L14.8009 62.37C17.4153 58.9116 21.1015 56.0745 25.489 54.1436C29.8765 52.2127 34.8109 51.2561 39.7962 51.3699C44.7816 51.4837 49.6424 52.6639 53.8902 54.7919C58.138 56.9198 61.6232 59.9207 63.9956 63.4929L69.7864 60.9428Z" fill="#9B9B9B"/>
<path d="M55 30.5C55 20.835 47.8366 13 39 13C30.1634 13 23 20.835 23 30.5C23 40.165 30.1634 48 39 48C47.8366 48 55 40.165 55 30.5ZM26.0096 30.5C26.0096 22.653 31.8256 16.2917 39 16.2917C46.1744 16.2917 51.9904 22.653 51.9904 30.5C51.9904 38.347 46.1744 44.7083 39 44.7083C31.8256 44.7083 26.0096 38.347 26.0096 30.5Z" fill="#9B9B9B"/>
</svg>
