<svg id="Layer_1" enable-background="new 0 0 100 100" height="512" viewBox="0 0 100 100" width="512" xmlns="http://www.w3.org/2000/svg"><path d="m94.06 57.77c-1.44-3.4-4.24-7.93-6.69-11.7-1.99-3.06-3.96-6.4-6.79-8.77-6.22-5.22-14.78-6.01-22.45-4.18-2.98.71-5.84 1.88-8.7 2.95-2.82 1.06-20.54 7.75-26.57 10.04-3.85 1.47-7.87 2.76-11.57 4.58-2.7 1.33-5.35 3.33-5.55 6.57-.19 3.06 1.67 6.89 3.96 8.84 2.2 1.87 5.05 2.06 7.69 1.07 3.61-1.35 7.04-3.33 10.49-5.03 7.27-3.58 14.56-7.39 22.2-10.13 3.18-1.14 6.44-2.1 9.71-2.94 3.09-.8 6.31-1.64 9.51-1.78 3.02-.14 6.23.35 9.08 1.38 3.28 1.19 10.65 6.6 13.17 10.72 1.04 1.73 3.46.62 2.51-1.62z"/></svg>